<?xml version="1.0" encoding="utf-8"?>
<!-- Generator: Adobe Illustrator 22.0.1, SVG Export Plug-In . SVG Version: 6.00 Build 0)  -->
<svg version="1.1" id="Слой_1" xmlns="http://www.w3.org/2000/svg" xmlns:xlink="http://www.w3.org/1999/xlink" x="0px" y="0px"
	 width="120px" height="100.4px" viewBox="0 0 120 100.4" style="enable-background:new 0 0 120 100.4;" xml:space="preserve">
<style type="text/css">
	.st0{fill:none;stroke:#000000;stroke-width:1.3;stroke-miterlimit:10;}
	.st1{fill:none;stroke:#FAB80F;stroke-width:2;stroke-miterlimit:10;}
	.st2{fill:none;stroke:#000000;stroke-width:2;stroke-miterlimit:10;}
</style>
<g>
	<circle class="st0" cx="41" cy="55" r="7.6"/>
	<path class="st0" d="M76.2,56.7c-0.8,3.4-3.8,5.9-7.4,5.9c-3.6,0-6.7-2.5-7.4-5.9"/>
	<path class="st0" d="M61.3,53.4c0.8-3.4,3.8-5.9,7.4-5.9c3.6,0,6.7,2.5,7.4,5.9"/>
	<circle class="st0" cx="41" cy="55" r="3.1"/>
	<circle class="st0" cx="68.8" cy="55" r="0.9"/>
	<path class="st0" d="M76.5,56.9H61c-1,0-1.9-0.8-1.9-1.9v0c0-1,0.8-1.9,1.9-1.9h15.5c1,0,1.9,0.8,1.9,1.9v0
		C78.4,56.1,77.5,56.9,76.5,56.9z"/>
	<line class="st0" x1="59.1" y1="55.8" x2="48.6" y2="55.8"/>
	<line class="st0" x1="62" y1="51.5" x2="47.8" y2="51.5"/>
	<path class="st0" d="M44.6,48.3v-6.4H34.5c0,0-6.7,2.2-9.1,6.5v3.6H34"/>
	<path class="st0" d="M33.7,57.2h-5.8c0,0-2.9-0.9-3.6-2.9c-0.7-2.1,1-2.4,1-2.4"/>
	<path class="st0" d="M47,50.3V32.5h8.1c0.6,0,1.1,0.3,1.3,0.8l3.6,8.1v10.1"/>
	<line class="st0" x1="57" y1="48.2" x2="50.2" y2="48.2"/>
	<line class="st0" x1="37.6" y1="48.2" x2="29.5" y2="48.2"/>
	<polyline class="st0" points="40.2,41.9 40.2,36.1 38.3,34.1 	"/>
	<path class="st0" d="M50.6,32.5v7c0,0,0,4.4,9.5,4.9"/>
</g>
<circle class="st1" cx="30.5" cy="73.5" r="5.9"/>
<circle class="st1" cx="30.5" cy="73.5" r="1.7"/>
<circle class="st1" cx="44.1" cy="73.5" r="5.9"/>
<circle class="st1" cx="44.1" cy="73.5" r="1.7"/>
<circle class="st1" cx="16.9" cy="73.5" r="5.9"/>
<circle class="st1" cx="16.9" cy="73.5" r="1.7"/>
<path class="st1" d="M10.1,67.6H5.5c-1.5,0-2.8-1.2-2.8-2.8v-0.6h93.4"/>
<path class="st1" d="M8.1,67.6h2.7c0.2,0,0.4,0,0.5-0.1l3.2-1.2c1.2-0.4,3.6-0.4,4.8-0.1l4.1,1.3c0.3,0.1,0.7,0.1,1,0l3.8-1.2
	c1.1-0.3,3.4-0.3,4.6,0l4.2,1.3c0.3,0.1,0.7,0.1,1,0l3.7-1.2c1.2-0.3,3.6-0.3,4.8,0.1l3.7,1.3l51.8,0"/>
<path class="st1" d="M11.1,73.5H9.7c-1.3,0-2.3-1.1-2.3-2.3v-3.5"/>
<polyline class="st1" points="57.8,67.6 57.8,73.5 50,73.5 "/>
<path class="st2" d="M107.9,37.2"/>
<circle class="st1" cx="102" cy="73.5" r="5.9"/>
<circle class="st1" cx="102" cy="73.5" r="1.7"/>
<path class="st1" d="M96.1,67.6v-27h13c0.6,0,1.1,0.4,1.1,1c0.2,2.1,1.2,7.4,5.1,13.8c0.5,0.8,1.1,1.7,1.7,2.6
	c0.2,0.2,0.2,0.5,0.2,0.7l0,12.1c0,0.5-0.4,0.9-0.9,0.9h-8.4"/>
<path class="st1" d="M115.3,55.4H103c-0.6,0-1-0.5-1-1v-6.8c0-0.5,0.4-0.9,0.9-0.9h8.1"/>
<line class="st1" x1="117.2" y1="63" x2="113.6" y2="63"/>
<polyline class="st1" points="95.6,73.5 91.3,73.5 91.3,67.6 "/>
<line class="st1" x1="2.7" y1="63.9" x2="8.1" y2="38.3"/>
</svg>
